# xmcd CD Database Entry
#
# Track frame offsets:
# 150
# 10425
# 19612
# 35625
# 51787
# 61500
# 72975
# 84425
# 101775
# 111075
# 125137
# 140950
# 153300
# 169312
# 180525
# 191075
#
# Disc length: 2667 seconds
#
# Revision: 6
# Processed by: cddbd v1.4PL0 Copyright (c) Steve Scherf et al.
# Submitted via: tcd 2.0b
#
DISCID=e20a6910
DTITLE=The Byrds - The best of
DYEAR=1900
DGENRE=
TTITLE0=Mr. Tambourine Man
TTITLE1=All I really want to do
TTITLE2=Turn! Turn! Turn!
TTITLE3=Eight miles high
TTITLE4=Mr. Spaceman
TTITLE5=I'll feel a whole lot better
TTITLE6=Fifth Dimension
TTITLE7=Chimes of freedom
TTITLE8=So you want to be a rock'n roll star
TTITLE9=My back pages
TTITLE10=The bells of Rhimney
TTITLE11=Set you free this time
TTITLE12=Lay down your money
TTITLE13=He was a friend of mine
TTITLE14=The times they are a-changin'
TTITLE15=It won't be wrong
EXTD=
EXTT0=
EXTT1=
EXTT2=
EXTT3=
EXTT4=
EXTT5=
EXTT6=
EXTT7=
EXTT8=
EXTT9=
EXTT10=
EXTT11=
EXTT12=
EXTT13=
EXTT14=
EXTT15=
PLAYORDER=
